<svg width="190" height="48" viewBox="0 0 190 48" fill="none" xmlns="http://www.w3.org/2000/svg">
<path d="M2.80762 4.64844H5.32324L10.0513 17.2603L14.7681 4.64844H17.2837L11.0396 21H9.04053L2.80762 4.64844ZM1.66211 4.64844H4.0542L4.46973 15.5645V21H1.66211V4.64844ZM16.0371 4.64844H18.4404V21H15.6216V15.5645L16.0371 4.64844ZM27.0969 4.64844V21H24.278V4.64844H27.0969ZM41.5033 16.7886C41.5033 16.4517 41.4509 16.1522 41.3461 15.8901C41.2488 15.6281 41.0728 15.3885 40.8183 15.1714C40.5637 14.9543 40.2043 14.7446 39.7401 14.5425C39.2834 14.3328 38.6994 14.1195 37.9882 13.9023C37.2095 13.6628 36.4908 13.397 35.8319 13.105C35.1806 12.8055 34.6116 12.4611 34.1249 12.0718C33.6382 11.675 33.2602 11.222 32.9906 10.7129C32.7211 10.1963 32.5863 9.60107 32.5863 8.92725C32.5863 8.2609 32.7248 7.65446 33.0019 7.10791C33.2864 6.56136 33.6869 6.08968 34.2035 5.69287C34.7276 5.28857 35.3453 4.97786 36.0565 4.76074C36.7678 4.53613 37.5539 4.42383 38.4149 4.42383C39.6278 4.42383 40.6723 4.64844 41.5482 5.09766C42.4317 5.54688 43.1093 6.14958 43.581 6.90576C44.0601 7.66195 44.2997 8.49674 44.2997 9.41016H41.5033C41.5033 8.87109 41.3873 8.39567 41.1552 7.98389C40.9306 7.56462 40.5862 7.23519 40.122 6.99561C39.6653 6.75602 39.085 6.63623 38.3813 6.63623C37.7149 6.63623 37.1609 6.7373 36.7191 6.93945C36.2774 7.1416 35.948 7.41488 35.7309 7.75928C35.5137 8.10368 35.4052 8.493 35.4052 8.92725C35.4052 9.23421 35.4763 9.51497 35.6186 9.76953C35.7608 10.0166 35.9779 10.2487 36.2699 10.4658C36.5619 10.6755 36.9288 10.8739 37.3705 11.061C37.8122 11.2482 38.3326 11.4279 38.9315 11.6001C39.8375 11.8696 40.6273 12.1691 41.3012 12.4985C41.975 12.8205 42.5365 13.1873 42.9857 13.5991C43.435 14.0109 43.7719 14.4788 43.9965 15.0029C44.2211 15.5195 44.3334 16.1073 44.3334 16.7661C44.3334 17.4549 44.1949 18.0763 43.9179 18.6304C43.6409 19.1769 43.244 19.6449 42.7274 20.0342C42.2183 20.416 41.6044 20.7118 40.8856 20.9214C40.1744 21.1235 39.3808 21.2246 38.5048 21.2246C37.7187 21.2246 36.9438 21.1198 36.1801 20.9102C35.4239 20.7005 34.7351 20.3823 34.1137 19.9556C33.4923 19.5213 32.9981 18.9823 32.6313 18.3384C32.2644 17.687 32.081 16.9271 32.081 16.0586H34.8998C34.8998 16.5902 34.9896 17.0431 35.1693 17.4175C35.3565 17.7918 35.6148 18.0988 35.9442 18.3384C36.2737 18.5705 36.6555 18.7427 37.0897 18.855C37.5315 18.9673 38.0032 19.0234 38.5048 19.0234C39.1636 19.0234 39.7139 18.9299 40.1557 18.7427C40.6049 18.5555 40.9418 18.2935 41.1664 17.9565C41.391 17.6196 41.5033 17.2303 41.5033 16.7886ZM55.8536 4.64844V21H53.0572V4.64844H55.8536ZM60.9859 4.64844V6.89453H47.9698V4.64844H60.9859ZM85.4863 12.6445V18.8887C85.2542 19.1956 84.8911 19.5326 84.397 19.8994C83.9103 20.2588 83.2627 20.5695 82.4541 20.8315C81.6455 21.0936 80.6385 21.2246 79.4331 21.2246C78.4074 21.2246 77.4678 21.0524 76.6143 20.708C75.7607 20.3561 75.0233 19.8433 74.4019 19.1694C73.7879 18.4956 73.3125 17.6758 72.9756 16.71C72.6387 15.7367 72.4702 14.6286 72.4702 13.3857V12.2515C72.4702 11.0161 72.6237 9.91553 72.9307 8.94971C73.2451 7.9764 73.6943 7.15283 74.2783 6.479C74.8623 5.80518 75.5661 5.29606 76.3896 4.95166C77.2207 4.59977 78.1603 4.42383 79.2085 4.42383C80.5487 4.42383 81.6567 4.64844 82.5327 5.09766C83.4162 5.53939 84.0975 6.15332 84.5767 6.93945C85.0558 7.72559 85.359 8.62402 85.4863 9.63477H82.7236C82.6338 9.06576 82.4578 8.55664 82.1958 8.10742C81.9412 7.6582 81.5744 7.30632 81.0952 7.05176C80.6235 6.78971 80.0096 6.65869 79.2534 6.65869C78.6021 6.65869 78.0293 6.78223 77.5352 7.0293C77.041 7.27637 76.6292 7.63949 76.2998 8.11865C75.9779 8.59782 75.7345 9.1818 75.5698 9.87061C75.4051 10.5594 75.3228 11.3455 75.3228 12.229V13.3857C75.3228 14.2842 75.4163 15.0815 75.6035 15.7778C75.7982 16.4741 76.0752 17.0618 76.4346 17.541C76.8014 18.0202 77.2469 18.3833 77.771 18.6304C78.2951 18.87 78.8866 18.9897 79.5454 18.9897C80.1893 18.9897 80.7171 18.9373 81.1289 18.8325C81.5407 18.7202 81.8664 18.5892 82.106 18.4395C82.353 18.2822 82.5439 18.1325 82.6787 17.9902V14.7446H79.2759V12.6445H85.4863ZM97.2761 6.82715L92.3908 21H89.4372L95.5915 4.64844H97.4782L97.2761 6.82715ZM101.364 21L96.4675 6.82715L96.2541 4.64844H98.1521L104.329 21H101.364ZM101.128 14.9355V17.1704H92.2336V14.9355H101.128ZM108.459 4.64844H114.243C115.486 4.64844 116.545 4.83561 117.421 5.20996C118.297 5.58431 118.967 6.13835 119.432 6.87207C119.903 7.59831 120.139 8.49674 120.139 9.56738C120.139 10.3835 119.989 11.1022 119.69 11.7236C119.39 12.3451 118.967 12.8691 118.421 13.2959C117.874 13.7152 117.223 14.0409 116.467 14.2729L115.613 14.6885H110.413L110.391 12.4536H114.288C114.962 12.4536 115.523 12.3338 115.973 12.0942C116.422 11.8547 116.759 11.529 116.983 11.1172C117.215 10.6979 117.331 10.2262 117.331 9.70215C117.331 9.13314 117.219 8.639 116.995 8.21973C116.777 7.79297 116.44 7.46729 115.984 7.24268C115.527 7.01058 114.947 6.89453 114.243 6.89453H111.278V21H108.459V4.64844ZM117.792 21L113.951 13.6553L116.905 13.644L120.802 20.854V21H117.792ZM129.997 21H126.504L126.527 18.7651H129.997C131.008 18.7651 131.854 18.5443 132.535 18.1025C133.224 17.6608 133.741 17.0282 134.085 16.2046C134.437 15.381 134.613 14.4002 134.613 13.2622V12.375C134.613 11.4915 134.512 10.7091 134.31 10.0278C134.115 9.34652 133.823 8.77376 133.434 8.30957C133.052 7.84538 132.58 7.49349 132.019 7.25391C131.465 7.01432 130.824 6.89453 130.098 6.89453H126.437V4.64844H130.098C131.184 4.64844 132.176 4.83187 133.074 5.19873C133.973 5.55811 134.748 6.07845 135.399 6.75977C136.058 7.44108 136.563 8.25716 136.915 9.20801C137.267 10.1589 137.443 11.222 137.443 12.3975V13.2622C137.443 14.4377 137.267 15.5008 136.915 16.4517C136.563 17.4025 136.058 18.2186 135.399 18.8999C134.74 19.5737 133.954 20.0941 133.041 20.4609C132.135 20.8203 131.12 21 129.997 21ZM128.066 4.64844V21H125.247V4.64844H128.066ZM153.276 18.7651V21H144.595V18.7651H153.276ZM145.392 4.64844V21H142.573V4.64844H145.392ZM152.141 11.4766V13.6777H144.595V11.4766H152.141ZM153.22 4.64844V6.89453H144.595V4.64844H153.22ZM170.849 4.64844V21H168.03L160.697 9.28662V21H157.878V4.64844H160.697L168.053 16.3843V4.64844H170.849ZM185.11 16.7886C185.11 16.4517 185.057 16.1522 184.952 15.8901C184.855 15.6281 184.679 15.3885 184.425 15.1714C184.17 14.9543 183.811 14.7446 183.346 14.5425C182.89 14.3328 182.306 14.1195 181.594 13.9023C180.816 13.6628 180.097 13.397 179.438 13.105C178.787 12.8055 178.218 12.4611 177.731 12.0718C177.245 11.675 176.866 11.222 176.597 10.7129C176.327 10.1963 176.193 9.60107 176.193 8.92725C176.193 8.2609 176.331 7.65446 176.608 7.10791C176.893 6.56136 177.293 6.08968 177.81 5.69287C178.334 5.28857 178.952 4.97786 179.663 4.76074C180.374 4.53613 181.16 4.42383 182.021 4.42383C183.234 4.42383 184.279 4.64844 185.154 5.09766C186.038 5.54688 186.716 6.14958 187.187 6.90576C187.666 7.66195 187.906 8.49674 187.906 9.41016H185.11C185.11 8.87109 184.994 8.39567 184.761 7.98389C184.537 7.56462 184.192 7.23519 183.728 6.99561C183.272 6.75602 182.691 6.63623 181.988 6.63623C181.321 6.63623 180.767 6.7373 180.325 6.93945C179.884 7.1416 179.554 7.41488 179.337 7.75928C179.12 8.10368 179.011 8.493 179.011 8.92725C179.011 9.23421 179.083 9.51497 179.225 9.76953C179.367 10.0166 179.584 10.2487 179.876 10.4658C180.168 10.6755 180.535 10.8739 180.977 11.061C181.418 11.2482 181.939 11.4279 182.538 11.6001C183.444 11.8696 184.234 12.1691 184.907 12.4985C185.581 12.8205 186.143 13.1873 186.592 13.5991C187.041 14.0109 187.378 14.4788 187.603 15.0029C187.827 15.5195 187.94 16.1073 187.94 16.7661C187.94 17.4549 187.801 18.0763 187.524 18.6304C187.247 19.1769 186.85 19.6449 186.334 20.0342C185.825 20.416 185.211 20.7118 184.492 20.9214C183.781 21.1235 182.987 21.2246 182.111 21.2246C181.325 21.2246 180.55 21.1198 179.786 20.9102C179.03 20.7005 178.341 20.3823 177.72 19.9556C177.099 19.5213 176.604 18.9823 176.238 18.3384C175.871 17.687 175.687 16.9271 175.687 16.0586H178.506C178.506 16.5902 178.596 17.0431 178.776 17.4175C178.963 17.7918 179.221 18.0988 179.55 18.3384C179.88 18.5705 180.262 18.7427 180.696 18.855C181.138 18.9673 181.609 19.0234 182.111 19.0234C182.77 19.0234 183.32 18.9299 183.762 18.7427C184.211 18.5555 184.548 18.2935 184.773 17.9565C184.997 17.6196 185.11 17.2303 185.11 16.7886Z" fill="#343D33"/>
<path d="M2.74658 33.3359H4.021L5.90332 42.0151L10.7886 33.3359H12.1948L6.1377 44H5.09033L2.74658 33.3359ZM2.28516 33.3359H3.46436L2.52686 39.8838L1.80908 44H0.432129L2.28516 33.3359ZM11.4038 33.3359H12.5903L10.7373 44H9.36768L10.1001 39.7666L11.4038 33.3359ZM18.1236 42.0957L19.1637 36.0752H20.4967L19.1197 44H17.8526L18.1236 42.0957ZM18.6217 40.499L19.1637 40.4771C19.1002 40.9751 18.9879 41.4487 18.8268 41.8979C18.6656 42.3423 18.4459 42.7378 18.1676 43.0845C17.8941 43.4263 17.5523 43.6948 17.1422 43.8901C16.7369 44.0806 16.256 44.1685 15.6993 44.1538C15.2647 44.1392 14.901 44.0513 14.608 43.8901C14.3199 43.729 14.0929 43.5117 13.9269 43.2383C13.7608 42.9648 13.651 42.6523 13.5973 42.3008C13.5436 41.9492 13.5362 41.5781 13.5753 41.1875L14.4322 36.0752H15.7579L14.901 41.2095C14.8814 41.4243 14.879 41.6367 14.8937 41.8467C14.9083 42.0518 14.9522 42.2397 15.0255 42.4106C15.0987 42.5815 15.211 42.7207 15.3624 42.8281C15.5187 42.9307 15.7237 42.9868 15.9776 42.9966C16.505 43.0161 16.9518 42.9185 17.318 42.7036C17.6842 42.4839 17.9747 42.1812 18.1896 41.7954C18.4044 41.4097 18.5484 40.9775 18.6217 40.499ZM26.1545 41.854C26.1984 41.5513 26.1423 41.3145 25.986 41.1436C25.8347 40.9727 25.6345 40.8433 25.3854 40.7554C25.1413 40.6626 24.9021 40.5869 24.6677 40.5283C24.3747 40.4551 24.0793 40.3647 23.7814 40.2573C23.4836 40.1499 23.2102 40.0132 22.9611 39.8472C22.717 39.6763 22.5217 39.4663 22.3752 39.2173C22.2336 38.9634 22.1701 38.6558 22.1848 38.2944C22.2043 37.9038 22.3068 37.5596 22.4924 37.2617C22.6828 36.9639 22.927 36.7148 23.2248 36.5146C23.5275 36.3145 23.8571 36.1655 24.2136 36.0679C24.57 35.9702 24.924 35.9238 25.2756 35.9287C25.7736 35.9385 26.2253 36.041 26.6306 36.2363C27.0407 36.4316 27.3654 36.7124 27.6047 37.0786C27.8439 37.4448 27.9562 37.8892 27.9416 38.4116L26.6306 38.4043C26.6403 38.126 26.5842 37.8867 26.4621 37.6865C26.34 37.4863 26.1716 37.3325 25.9567 37.2251C25.7419 37.1128 25.4978 37.0542 25.2243 37.0493C24.9655 37.0444 24.7116 37.0859 24.4626 37.1738C24.2136 37.2568 24.0012 37.3887 23.8254 37.5693C23.6496 37.7451 23.5422 37.9746 23.5031 38.2578C23.4738 38.4678 23.5056 38.6411 23.5983 38.7778C23.6911 38.9097 23.8181 39.0171 23.9792 39.1001C24.1452 39.1782 24.3186 39.2441 24.4992 39.2979C24.6848 39.3467 24.8532 39.3906 25.0046 39.4297C25.405 39.542 25.8005 39.6836 26.1911 39.8545C26.5817 40.0254 26.8991 40.2622 27.1433 40.5649C27.3874 40.8628 27.4973 41.2559 27.4729 41.7441C27.4533 42.1592 27.3435 42.5205 27.1433 42.8281C26.9479 43.1309 26.694 43.3823 26.3815 43.5825C26.0739 43.7778 25.7346 43.9219 25.3635 44.0146C24.9924 44.1074 24.6213 44.1514 24.2502 44.1465C23.7375 44.1367 23.259 44.0317 22.8146 43.8315C22.3752 43.6265 22.0236 43.3335 21.76 42.9526C21.4963 42.5669 21.3718 42.0981 21.3864 41.5464L22.7121 41.5537C22.7121 41.8711 22.778 42.1396 22.9099 42.3594C23.0466 42.5742 23.2346 42.7378 23.4738 42.8501C23.7131 42.9624 23.9865 43.021 24.2941 43.0259C24.5529 43.0308 24.8166 42.9966 25.0852 42.9233C25.3586 42.8501 25.593 42.728 25.7883 42.5571C25.9885 42.3813 26.1105 42.147 26.1545 41.854ZM32.2811 44.1465C31.7391 44.1367 31.2679 44.0293 30.8675 43.8242C30.472 43.6143 30.1473 43.3335 29.8934 42.9819C29.6443 42.6255 29.4661 42.2202 29.3587 41.7661C29.2513 41.312 29.2195 40.8359 29.2635 40.3379L29.2928 40.0229C29.3416 39.5151 29.4661 39.0171 29.6663 38.5288C29.8665 38.0356 30.1326 37.5913 30.4646 37.1958C30.8016 36.8003 31.1971 36.4878 31.6512 36.2583C32.1102 36.0239 32.618 35.9141 33.1746 35.9287C33.7264 35.9385 34.1854 36.0557 34.5516 36.2803C34.9178 36.5049 35.2034 36.8027 35.4085 37.1738C35.6185 37.54 35.7552 37.9526 35.8187 38.4116C35.8821 38.8657 35.887 39.332 35.8333 39.8105L35.7527 40.4185H30.0032L30.179 39.3125L34.5662 39.3198L34.5882 39.2026C34.637 38.8511 34.6175 38.5117 34.5296 38.1846C34.4417 37.8574 34.2806 37.5889 34.0462 37.3789C33.8167 37.1641 33.5066 37.0518 33.116 37.042C32.7107 37.0273 32.3592 37.1104 32.0613 37.291C31.7635 37.4668 31.5145 37.7061 31.3143 38.0088C31.1141 38.3066 30.9554 38.6338 30.8382 38.9902C30.7259 39.3418 30.6478 39.686 30.6038 40.0229L30.5745 40.3306C30.5452 40.6431 30.555 40.958 30.6038 41.2754C30.6526 41.5928 30.7454 41.8833 30.8821 42.147C31.0237 42.4058 31.219 42.6182 31.4681 42.7842C31.7171 42.9453 32.0247 43.0308 32.3909 43.0405C32.8353 43.0503 33.2332 42.9551 33.5848 42.7549C33.9412 42.5498 34.2659 42.291 34.5589 41.9785L35.3133 42.623C35.0838 42.96 34.8104 43.2432 34.493 43.4727C34.1756 43.7021 33.8289 43.873 33.4529 43.9854C33.077 44.0977 32.6863 44.1514 32.2811 44.1465ZM41.8354 42.0957L42.8754 36.0752H44.2084L42.8314 44H41.5644L41.8354 42.0957ZM42.3334 40.499L42.8754 40.4771C42.8119 40.9751 42.6996 41.4487 42.5385 41.8979C42.3773 42.3423 42.1576 42.7378 41.8793 43.0845C41.6059 43.4263 41.2641 43.6948 40.8539 43.8901C40.4486 44.0806 39.9677 44.1685 39.411 44.1538C38.9765 44.1392 38.6127 44.0513 38.3197 43.8901C38.0316 43.729 37.8046 43.5117 37.6386 43.2383C37.4726 42.9648 37.3627 42.6523 37.309 42.3008C37.2553 41.9492 37.2479 41.5781 37.287 41.1875L38.1439 36.0752H39.4696L38.6127 41.2095C38.5932 41.4243 38.5907 41.6367 38.6054 41.8467C38.62 42.0518 38.664 42.2397 38.7372 42.4106C38.8104 42.5815 38.9228 42.7207 39.0741 42.8281C39.2304 42.9307 39.4354 42.9868 39.6894 42.9966C40.2167 43.0161 40.6635 42.9185 41.0297 42.7036C41.3959 42.4839 41.6864 42.1812 41.9013 41.7954C42.1161 41.4097 42.2602 40.9775 42.3334 40.499ZM47.376 37.7305L46.292 44H44.959L46.3359 36.0752H47.5957L47.376 37.7305ZM46.7827 39.7373L46.1821 39.7227C46.2505 39.2295 46.3726 38.7534 46.5483 38.2944C46.7241 37.8354 46.9585 37.4253 47.2515 37.064C47.5493 36.7026 47.9082 36.4194 48.3281 36.2144C48.748 36.0093 49.2339 35.9141 49.7856 35.9287C50.1958 35.9385 50.5425 36.019 50.8257 36.1704C51.1089 36.3169 51.3359 36.5195 51.5068 36.7783C51.6826 37.0322 51.7998 37.3252 51.8584 37.6572C51.9219 37.9893 51.9365 38.3433 51.9023 38.7192L51.0161 44H49.6904L50.5693 38.7778C50.6084 38.4458 50.5889 38.1528 50.5107 37.8989C50.4375 37.645 50.2983 37.4448 50.0933 37.2983C49.8882 37.147 49.6099 37.0664 49.2583 37.0566C48.8628 37.0469 48.5186 37.1152 48.2256 37.2617C47.9375 37.4082 47.6958 37.6108 47.5005 37.8696C47.3101 38.1235 47.1562 38.4141 47.0391 38.7412C46.9219 39.0635 46.8364 39.3955 46.7827 39.7373ZM51.9023 38.9902L50.9502 39.2686C51.0088 38.8145 51.1309 38.3848 51.3164 37.9795C51.5068 37.5742 51.7534 37.2153 52.0562 36.9028C52.3589 36.5903 52.7104 36.3462 53.1108 36.1704C53.5112 35.9946 53.9531 35.9116 54.4365 35.9214C54.8662 35.9312 55.23 36.0117 55.5278 36.1631C55.8257 36.3096 56.0625 36.5122 56.2383 36.771C56.4189 37.0298 56.5386 37.3325 56.5972 37.6792C56.6606 38.021 56.6704 38.3921 56.6265 38.7925L55.7549 44H54.4219L55.3008 38.7705C55.3398 38.4336 55.3228 38.1382 55.2495 37.8843C55.1812 37.6304 55.0444 37.4326 54.8394 37.291C54.6343 37.1445 54.3511 37.0688 53.9897 37.064C53.7017 37.0542 53.438 37.0981 53.1987 37.1958C52.9595 37.2935 52.752 37.4326 52.5762 37.6133C52.4004 37.7891 52.2539 37.9941 52.1367 38.2285C52.0244 38.4629 51.9463 38.7168 51.9023 38.9902ZM64.5729 38.082L66.3015 36.9468C66.5993 36.7515 66.863 36.5342 67.0925 36.2949C67.322 36.0557 67.4562 35.748 67.4953 35.3721C67.5295 35.0498 67.4416 34.7886 67.2316 34.5884C67.0217 34.3882 66.758 34.2856 66.4406 34.2808C66.1623 34.2808 65.9157 34.3516 65.7009 34.4932C65.4909 34.6348 65.32 34.8203 65.1882 35.0498C65.0612 35.2793 64.9831 35.5259 64.9538 35.7896C64.9196 36.0532 64.9465 36.312 65.0344 36.5659C65.1223 36.8149 65.2395 37.0566 65.3859 37.291C65.5324 37.5205 65.674 37.7402 65.8107 37.9502L69.7585 44H68.2717L65.0344 39.0488C64.8195 38.7314 64.5998 38.4043 64.3752 38.0674C64.1506 37.7256 63.965 37.3691 63.8186 36.998C63.677 36.627 63.6184 36.2388 63.6428 35.8335C63.6818 35.3013 63.8259 34.835 64.0749 34.4346C64.3288 34.0293 64.6657 33.7168 65.0856 33.4971C65.5056 33.2773 65.9841 33.1748 66.5212 33.1895C66.9362 33.1992 67.3171 33.2944 67.6638 33.4751C68.0104 33.6558 68.2814 33.9097 68.4768 34.2368C68.677 34.5591 68.7648 34.9399 68.7404 35.3794C68.7209 35.7407 68.6281 36.0654 68.4621 36.3535C68.301 36.6416 68.0959 36.9004 67.8469 37.1299C67.5979 37.3594 67.3342 37.5718 67.0559 37.7671L64.7487 39.3418C64.5388 39.4883 64.3312 39.6543 64.1262 39.8398C63.9211 40.0205 63.7429 40.2231 63.5915 40.4478C63.445 40.6724 63.3547 40.9189 63.3205 41.1875C63.2717 41.5586 63.3132 41.8809 63.445 42.1543C63.5769 42.4277 63.7771 42.6426 64.0456 42.7988C64.3142 42.9502 64.6315 43.0308 64.9978 43.0405C65.5251 43.0552 66.0036 42.9478 66.4333 42.7183C66.8679 42.4839 67.2463 42.1714 67.5686 41.7808C67.8957 41.3853 68.1594 40.9531 68.3596 40.4844C68.5598 40.0107 68.694 39.542 68.7624 39.0781H69.9343C69.8806 39.5664 69.7805 40.0156 69.634 40.4258C69.4875 40.8311 69.2946 41.2168 69.0554 41.583C68.8161 41.9443 68.5354 42.3032 68.2131 42.6597C68.1691 42.7085 68.1276 42.7622 68.0886 42.8208C68.0544 42.8745 68.0153 42.9258 67.9714 42.9746C67.6101 43.3799 67.1462 43.6802 66.5798 43.8755C66.0183 44.0659 65.4714 44.1562 64.9392 44.1465C64.363 44.1318 63.843 44.0049 63.3791 43.7656C62.9152 43.5264 62.5539 43.1895 62.2951 42.7549C62.0363 42.3154 61.9289 41.793 61.9729 41.1875C62.0119 40.6846 62.1657 40.2476 62.4343 39.8765C62.7077 39.5005 63.0373 39.1685 63.423 38.8804C63.8088 38.5923 64.1921 38.3262 64.5729 38.082ZM79.602 39.0122H76.8993L77.0824 37.877L79.3895 37.8843C79.7655 37.8843 80.1195 37.8184 80.4516 37.6865C80.7885 37.5547 81.0692 37.3569 81.2938 37.0933C81.5233 36.8296 81.6625 36.4976 81.7113 36.0972C81.7602 35.7163 81.7211 35.4111 81.5941 35.1816C81.4672 34.9473 81.2719 34.7788 81.0082 34.6763C80.7494 34.5688 80.4442 34.5103 80.0927 34.5005L77.9979 34.4932L76.35 44H74.9657L76.8187 33.3359L80.122 33.3433C80.5663 33.353 80.9765 33.4141 81.3524 33.5264C81.7333 33.6338 82.0604 33.7998 82.3339 34.0244C82.6073 34.2441 82.8124 34.5273 82.9491 34.874C83.0907 35.2207 83.142 35.6357 83.1029 36.1191C83.0639 36.6416 82.8979 37.0811 82.6049 37.4375C82.3168 37.7939 81.953 38.0747 81.5136 38.2798C81.079 38.48 80.6273 38.6118 80.1586 38.6753L79.602 39.0122ZM78.6864 44H75.4491L76.4232 42.8501L78.723 42.8574C79.1381 42.8574 79.5214 42.7817 79.8729 42.6304C80.2245 42.479 80.515 42.2568 80.7445 41.9639C80.9789 41.6709 81.1229 41.3096 81.1767 40.8799C81.2206 40.499 81.1913 40.1719 81.0888 39.8984C80.9862 39.625 80.8104 39.415 80.5614 39.2686C80.3124 39.1172 79.995 39.0342 79.6093 39.0195L77.5658 39.0122L77.7782 37.877L80.3783 37.8843L80.6054 38.2944C81.0448 38.3628 81.4135 38.519 81.7113 38.7632C82.0141 39.0024 82.2338 39.3052 82.3705 39.6714C82.5121 40.0327 82.5683 40.4307 82.539 40.8652C82.4853 41.5635 82.2753 42.147 81.9091 42.6157C81.5478 43.0796 81.0839 43.4287 80.5175 43.6631C79.9511 43.8926 79.3407 44.0049 78.6864 44ZM84.3296 40.1694L84.3516 40.001C84.4102 39.4688 84.542 38.9561 84.7471 38.4629C84.957 37.9697 85.2329 37.5303 85.5747 37.1445C85.9165 36.7588 86.3218 36.4561 86.7905 36.2363C87.2593 36.0166 87.7817 35.9141 88.3579 35.9287C88.9146 35.9385 89.3906 36.0581 89.7861 36.2876C90.1865 36.5171 90.5088 36.8223 90.7529 37.2031C91.002 37.5791 91.1753 38.0039 91.2729 38.4775C91.3706 38.9512 91.395 39.4395 91.3462 39.9424L91.3315 40.1108C91.2681 40.6431 91.1313 41.1533 90.9214 41.6416C90.7114 42.1299 90.4331 42.5645 90.0864 42.9453C89.7446 43.3262 89.3394 43.6265 88.8706 43.8462C88.4019 44.061 87.8818 44.1611 87.3105 44.1465C86.7588 44.1367 86.2827 44.0195 85.8823 43.7949C85.4868 43.5654 85.167 43.2627 84.9229 42.8867C84.6787 42.5107 84.5078 42.0884 84.4102 41.6196C84.3125 41.1509 84.2856 40.6675 84.3296 40.1694ZM85.6699 40.001L85.6553 40.1768C85.6211 40.4844 85.6187 40.8042 85.6479 41.1362C85.6821 41.4683 85.7603 41.7759 85.8823 42.0591C86.0093 42.3423 86.1924 42.5742 86.4316 42.7549C86.6709 42.9355 86.981 43.0308 87.3618 43.0405C87.7671 43.0503 88.1235 42.9722 88.4312 42.8062C88.7388 42.6353 89 42.4058 89.2148 42.1177C89.4346 41.8296 89.6079 41.5098 89.7349 41.1582C89.8667 40.8066 89.9546 40.4575 89.9985 40.1108L90.0132 39.9424C90.0474 39.6348 90.0474 39.3149 90.0132 38.9829C89.9839 38.646 89.9058 38.3335 89.7788 38.0454C89.6567 37.7524 89.4761 37.5156 89.2368 37.335C88.9976 37.1494 88.6875 37.0518 88.3066 37.042C87.9014 37.0273 87.5425 37.1079 87.23 37.2837C86.9224 37.4546 86.6611 37.6865 86.4463 37.9795C86.2314 38.2725 86.0581 38.5972 85.9263 38.9536C85.7993 39.3052 85.7139 39.6543 85.6699 40.001ZM97.048 36.0752L96.8648 37.1152H92.6974L92.8805 36.0752H97.048ZM94.6236 34.1489H95.942L94.6017 42.0518C94.587 42.2227 94.5919 42.3765 94.6163 42.5132C94.6407 42.6499 94.6993 42.7598 94.7921 42.8428C94.8849 42.9209 95.0265 42.9624 95.2169 42.9673C95.3243 42.9673 95.4293 42.96 95.5318 42.9453C95.6393 42.9258 95.7467 42.9087 95.8541 42.894L95.7589 44.0073C95.6026 44.0513 95.4415 44.083 95.2755 44.1025C95.1144 44.127 94.9532 44.1367 94.7921 44.1318C94.3868 44.127 94.0694 44.0244 93.8399 43.8242C93.6105 43.624 93.4542 43.3652 93.3712 43.0479C93.2882 42.7305 93.2638 42.3911 93.298 42.0298L94.6236 34.1489ZM102.142 42.645L102.801 38.5508C102.835 38.248 102.806 37.9819 102.713 37.7524C102.625 37.5229 102.476 37.3447 102.266 37.2178C102.061 37.0908 101.802 37.0225 101.49 37.0127C101.217 37.0078 100.948 37.0518 100.684 37.1445C100.425 37.2373 100.201 37.3765 100.01 37.562C99.82 37.7476 99.6955 37.9819 99.6369 38.2651L98.3186 38.2725C98.3527 37.877 98.4772 37.5327 98.6921 37.2397C98.9069 36.9419 99.1755 36.6953 99.4978 36.5C99.82 36.2998 100.167 36.1533 100.538 36.0605C100.909 35.9629 101.27 35.9165 101.622 35.9214C102.154 35.9312 102.615 36.0459 103.006 36.2656C103.402 36.4805 103.699 36.7832 103.9 37.1738C104.1 37.5645 104.173 38.0332 104.119 38.5801L103.511 42.2715C103.467 42.54 103.441 42.811 103.431 43.0845C103.426 43.353 103.458 43.6167 103.526 43.8755L103.511 44L102.171 44.0073C102.117 43.7827 102.091 43.5557 102.091 43.3262C102.095 43.0967 102.113 42.8696 102.142 42.645ZM102.955 39.1953L102.801 40.1475L101.549 40.1401C101.285 40.1401 101.007 40.1597 100.714 40.1987C100.421 40.2378 100.142 40.311 99.8786 40.4185C99.6149 40.5259 99.3928 40.6821 99.2121 40.8872C99.0314 41.0874 98.9216 41.3486 98.8825 41.6709C98.8532 41.9346 98.885 42.1641 98.9777 42.3594C99.0754 42.5498 99.2219 42.6987 99.4172 42.8062C99.6125 42.9136 99.8396 42.9697 100.098 42.9746C100.435 42.9795 100.767 42.9136 101.094 42.7769C101.422 42.6401 101.707 42.4448 101.951 42.1909C102.196 41.937 102.364 41.644 102.457 41.312L102.94 41.9639C102.847 42.2861 102.696 42.584 102.486 42.8574C102.276 43.126 102.027 43.3579 101.739 43.5532C101.456 43.7485 101.151 43.8999 100.823 44.0073C100.496 44.1147 100.169 44.166 99.842 44.1611C99.3977 44.1514 98.9948 44.0513 98.6335 43.8608C98.2771 43.6704 97.9939 43.4043 97.7839 43.0625C97.5788 42.7158 97.4909 42.313 97.5202 41.854C97.5495 41.3511 97.6814 40.9287 97.9157 40.5869C98.1501 40.2451 98.4504 39.9717 98.8166 39.7666C99.1877 39.5615 99.593 39.415 100.032 39.3271C100.472 39.2344 100.906 39.188 101.336 39.188L102.955 39.1953ZM107.822 37.8477L106.752 44H105.427L106.804 36.0752H108.056L107.822 37.8477ZM107.206 39.7373L106.664 39.7227C106.733 39.249 106.857 38.7852 107.038 38.3311C107.223 37.8721 107.465 37.4595 107.763 37.0933C108.066 36.7271 108.425 36.439 108.84 36.229C109.26 36.0142 109.738 35.9141 110.275 35.9287C110.7 35.9385 111.054 36.0215 111.337 36.1777C111.625 36.3291 111.85 36.5366 112.011 36.8003C112.172 37.064 112.28 37.3691 112.333 37.7158C112.387 38.0576 112.392 38.4214 112.348 38.8071L111.484 44H110.151L111.03 38.7852C111.064 38.4678 111.052 38.1821 110.993 37.9282C110.939 37.6694 110.817 37.4644 110.627 37.313C110.441 37.1567 110.173 37.0737 109.821 37.064C109.45 37.0542 109.116 37.125 108.818 37.2764C108.52 37.4277 108.259 37.6353 108.034 37.8989C107.814 38.1577 107.634 38.4482 107.492 38.7705C107.355 39.0879 107.26 39.4102 107.206 39.7373ZM116.431 36.0752L115.054 44H113.728L115.105 36.0752H116.431ZM115.369 33.9951C115.369 33.7656 115.44 33.5752 115.581 33.4238C115.728 33.2676 115.916 33.187 116.145 33.1821C116.375 33.1772 116.563 33.248 116.709 33.3945C116.861 33.541 116.934 33.7266 116.929 33.9512C116.929 34.1758 116.853 34.3638 116.702 34.5151C116.556 34.6616 116.37 34.7373 116.145 34.7422C115.921 34.7471 115.735 34.6812 115.589 34.5444C115.442 34.4028 115.369 34.2197 115.369 33.9951ZM120.617 43.0405C120.939 43.0454 121.239 42.9844 121.518 42.8574C121.796 42.7305 122.033 42.5498 122.228 42.3154C122.423 42.0811 122.562 41.8101 122.646 41.5024L123.905 41.4951C123.827 42.0273 123.62 42.4937 123.283 42.894C122.951 43.2944 122.543 43.6069 122.06 43.8315C121.581 44.0513 121.081 44.1562 120.558 44.1465C120.001 44.1367 119.528 44.022 119.137 43.8022C118.751 43.5776 118.441 43.2798 118.207 42.9087C117.973 42.5376 117.812 42.1201 117.724 41.6562C117.636 41.1875 117.616 40.7065 117.665 40.2134L117.694 39.8984C117.753 39.3662 117.882 38.8608 118.083 38.3823C118.283 37.8989 118.549 37.4717 118.881 37.1006C119.218 36.7246 119.616 36.4316 120.075 36.2217C120.534 36.0117 121.049 35.9141 121.62 35.9287C122.177 35.9385 122.66 36.0703 123.07 36.3242C123.48 36.5732 123.798 36.9126 124.022 37.3423C124.247 37.772 124.359 38.2603 124.359 38.8071L123.114 38.7998C123.109 38.4873 123.048 38.1992 122.931 37.9355C122.814 37.6719 122.641 37.4595 122.411 37.2983C122.182 37.1372 121.898 37.0493 121.562 37.0347C121.156 37.0249 120.802 37.1006 120.5 37.2617C120.202 37.4229 119.948 37.645 119.738 37.9282C119.533 38.2065 119.369 38.5166 119.247 38.8584C119.13 39.2002 119.049 39.5469 119.005 39.8984L118.969 40.2061C118.939 40.5186 118.935 40.8384 118.954 41.1655C118.979 41.4927 119.047 41.7979 119.159 42.0811C119.271 42.3594 119.445 42.5864 119.679 42.7622C119.914 42.938 120.226 43.0308 120.617 43.0405ZM129.871 42.645L130.53 38.5508C130.564 38.248 130.535 37.9819 130.442 37.7524C130.354 37.5229 130.205 37.3447 129.995 37.2178C129.79 37.0908 129.531 37.0225 129.219 37.0127C128.945 37.0078 128.677 37.0518 128.413 37.1445C128.154 37.2373 127.93 37.3765 127.739 37.562C127.549 37.7476 127.424 37.9819 127.366 38.2651L126.047 38.2725C126.082 37.877 126.206 37.5327 126.421 37.2397C126.636 36.9419 126.904 36.6953 127.227 36.5C127.549 36.2998 127.896 36.1533 128.267 36.0605C128.638 35.9629 128.999 35.9165 129.351 35.9214C129.883 35.9312 130.344 36.0459 130.735 36.2656C131.13 36.4805 131.428 36.7832 131.629 37.1738C131.829 37.5645 131.902 38.0332 131.848 38.5801L131.24 42.2715C131.196 42.54 131.17 42.811 131.16 43.0845C131.155 43.353 131.187 43.6167 131.255 43.8755L131.24 44L129.9 44.0073C129.846 43.7827 129.819 43.5557 129.819 43.3262C129.824 43.0967 129.841 42.8696 129.871 42.645ZM130.684 39.1953L130.53 40.1475L129.277 40.1401C129.014 40.1401 128.735 40.1597 128.442 40.1987C128.15 40.2378 127.871 40.311 127.608 40.4185C127.344 40.5259 127.122 40.6821 126.941 40.8872C126.76 41.0874 126.65 41.3486 126.611 41.6709C126.582 41.9346 126.614 42.1641 126.707 42.3594C126.804 42.5498 126.951 42.6987 127.146 42.8062C127.341 42.9136 127.568 42.9697 127.827 42.9746C128.164 42.9795 128.496 42.9136 128.823 42.7769C129.15 42.6401 129.436 42.4448 129.68 42.1909C129.924 41.937 130.093 41.644 130.186 41.312L130.669 41.9639C130.576 42.2861 130.425 42.584 130.215 42.8574C130.005 43.126 129.756 43.3579 129.468 43.5532C129.185 43.7485 128.879 43.8999 128.552 44.0073C128.225 44.1147 127.898 44.166 127.571 44.1611C127.127 44.1514 126.724 44.0513 126.362 43.8608C126.006 43.6704 125.723 43.4043 125.513 43.0625C125.308 42.7158 125.22 42.313 125.249 41.854C125.278 41.3511 125.41 40.9287 125.645 40.5869C125.879 40.2451 126.179 39.9717 126.546 39.7666C126.917 39.5615 127.322 39.415 127.761 39.3271C128.201 39.2344 128.635 39.188 129.065 39.188L130.684 39.1953ZM136.547 32.75L134.591 44H133.265L135.214 32.75H136.547ZM149.466 38.6899L148.836 42.5938C148.548 42.9941 148.189 43.3091 147.76 43.5386C147.335 43.7632 146.878 43.9219 146.39 44.0146C145.902 44.1074 145.426 44.1514 144.962 44.1465C144.254 44.1367 143.656 43.9854 143.167 43.6924C142.684 43.3994 142.301 43.0112 142.017 42.5278C141.734 42.0444 141.544 41.5049 141.446 40.9092C141.353 40.3135 141.349 39.7031 141.432 39.0781L141.549 38.2505C141.646 37.5815 141.817 36.9419 142.061 36.3315C142.31 35.7163 142.638 35.1719 143.043 34.6982C143.453 34.2197 143.944 33.8462 144.515 33.5776C145.086 33.3042 145.746 33.1748 146.493 33.1895C147.171 33.2041 147.752 33.3457 148.236 33.6143C148.724 33.8828 149.105 34.2588 149.378 34.7422C149.657 35.2256 149.82 35.7993 149.869 36.4634H148.507C148.473 36.0435 148.375 35.6772 148.214 35.3647C148.058 35.0522 147.83 34.8081 147.533 34.6323C147.24 34.4565 146.873 34.3613 146.434 34.3467C145.877 34.3271 145.394 34.4297 144.984 34.6543C144.579 34.874 144.237 35.1743 143.958 35.5552C143.685 35.9312 143.465 36.3535 143.299 36.8223C143.133 37.2861 143.014 37.7573 142.94 38.2358L142.816 39.0854C142.762 39.5005 142.747 39.9351 142.772 40.3892C142.801 40.8384 142.892 41.2583 143.043 41.6489C143.199 42.0396 143.436 42.3594 143.753 42.6084C144.071 42.8525 144.491 42.9795 145.013 42.9893C145.311 42.9941 145.604 42.9746 145.892 42.9307C146.185 42.8867 146.463 42.8086 146.727 42.6963C146.991 42.584 147.237 42.4253 147.467 42.2202L147.899 39.8325H145.496L145.702 38.6899H149.466ZM155.549 42.645L156.208 38.5508C156.242 38.248 156.213 37.9819 156.12 37.7524C156.032 37.5229 155.883 37.3447 155.673 37.2178C155.468 37.0908 155.209 37.0225 154.897 37.0127C154.624 37.0078 154.355 37.0518 154.091 37.1445C153.833 37.2373 153.608 37.3765 153.417 37.562C153.227 37.7476 153.103 37.9819 153.044 38.2651L151.726 38.2725C151.76 37.877 151.884 37.5327 152.099 37.2397C152.314 36.9419 152.583 36.6953 152.905 36.5C153.227 36.2998 153.574 36.1533 153.945 36.0605C154.316 35.9629 154.677 35.9165 155.029 35.9214C155.561 35.9312 156.022 36.0459 156.413 36.2656C156.809 36.4805 157.106 36.7832 157.307 37.1738C157.507 37.5645 157.58 38.0332 157.526 38.5801L156.918 42.2715C156.875 42.54 156.848 42.811 156.838 43.0845C156.833 43.353 156.865 43.6167 156.933 43.8755L156.918 44L155.578 44.0073C155.524 43.7827 155.498 43.5557 155.498 43.3262C155.502 43.0967 155.52 42.8696 155.549 42.645ZM156.362 39.1953L156.208 40.1475L154.956 40.1401C154.692 40.1401 154.414 40.1597 154.121 40.1987C153.828 40.2378 153.549 40.311 153.286 40.4185C153.022 40.5259 152.8 40.6821 152.619 40.8872C152.438 41.0874 152.329 41.3486 152.29 41.6709C152.26 41.9346 152.292 42.1641 152.385 42.3594C152.482 42.5498 152.629 42.6987 152.824 42.8062C153.02 42.9136 153.247 42.9697 153.505 42.9746C153.842 42.9795 154.174 42.9136 154.501 42.7769C154.829 42.6401 155.114 42.4448 155.358 42.1909C155.603 41.937 155.771 41.644 155.864 41.312L156.347 41.9639C156.254 42.2861 156.103 42.584 155.893 42.8574C155.683 43.126 155.434 43.3579 155.146 43.5532C154.863 43.7485 154.558 43.8999 154.23 44.0073C153.903 44.1147 153.576 44.166 153.249 44.1611C152.805 44.1514 152.402 44.0513 152.041 43.8608C151.684 43.6704 151.401 43.4043 151.191 43.0625C150.986 42.7158 150.898 42.313 150.927 41.854C150.957 41.3511 151.088 40.9287 151.323 40.5869C151.557 40.2451 151.857 39.9717 152.224 39.7666C152.595 39.5615 153 39.415 153.439 39.3271C153.879 39.2344 154.313 39.188 154.743 39.188L156.362 39.1953ZM161.309 37.3789L160.159 44H158.834L160.211 36.0752H161.5L161.309 37.3789ZM163.88 36.0093L163.755 37.2837C163.653 37.2642 163.548 37.2471 163.441 37.2324C163.338 37.2178 163.235 37.2104 163.133 37.2104C162.816 37.2056 162.53 37.2544 162.276 37.3569C162.027 37.4546 161.805 37.5938 161.609 37.7744C161.419 37.9551 161.255 38.1675 161.119 38.4116C160.987 38.6558 160.882 38.9194 160.804 39.2026L160.386 39.4224C160.44 39.0269 160.528 38.6216 160.65 38.2065C160.777 37.7915 160.95 37.4082 161.17 37.0566C161.395 36.7051 161.675 36.4219 162.012 36.207C162.354 35.9922 162.764 35.8921 163.243 35.9067C163.35 35.9067 163.455 35.9165 163.558 35.936C163.665 35.9556 163.773 35.98 163.88 36.0093ZM168.901 42.3813L170.571 32.75H171.904L169.948 44H168.739L168.901 42.3813ZM164.125 40.1841L164.14 40.0303C164.203 39.542 164.321 39.0537 164.491 38.5654C164.667 38.0771 164.904 37.6304 165.202 37.2251C165.5 36.8198 165.861 36.4976 166.286 36.2583C166.711 36.019 167.206 35.9067 167.773 35.9214C168.28 35.936 168.705 36.0557 169.047 36.2803C169.389 36.5049 169.657 36.8027 169.853 37.1738C170.053 37.54 170.187 37.9429 170.256 38.3823C170.329 38.8218 170.351 39.2637 170.321 39.708L170.241 40.3818C170.158 40.8555 170.021 41.3193 169.831 41.7734C169.64 42.2275 169.394 42.6377 169.091 43.0039C168.793 43.3652 168.434 43.6509 168.014 43.8608C167.599 44.0708 167.123 44.1685 166.586 44.1538C166.069 44.1343 165.639 44 165.297 43.751C164.96 43.502 164.696 43.1821 164.506 42.7915C164.321 42.396 164.198 41.9712 164.14 41.5171C164.086 41.0581 164.081 40.6138 164.125 40.1841ZM165.488 40.0156L165.473 40.1694C165.439 40.4624 165.426 40.7725 165.436 41.0996C165.451 41.4219 165.507 41.7271 165.605 42.0151C165.702 42.2983 165.861 42.5327 166.081 42.7183C166.3 42.8989 166.598 42.9966 166.974 43.0112C167.375 43.021 167.746 42.9307 168.088 42.7402C168.429 42.5498 168.722 42.2959 168.967 41.9785C169.211 41.6611 169.386 41.3169 169.494 40.9458L169.779 39.166C169.794 38.8975 169.762 38.6411 169.684 38.397C169.606 38.1479 169.489 37.9258 169.333 37.7305C169.181 37.5352 168.993 37.3789 168.769 37.2617C168.549 37.1396 168.302 37.0762 168.029 37.0713C167.619 37.0566 167.265 37.1372 166.967 37.313C166.669 37.4839 166.418 37.7158 166.213 38.0088C166.012 38.2969 165.854 38.6167 165.737 38.9683C165.619 39.3198 165.536 39.6689 165.488 40.0156ZM175.481 44.1465C174.939 44.1367 174.468 44.0293 174.068 43.8242C173.672 43.6143 173.347 43.3335 173.094 42.9819C172.845 42.6255 172.666 42.2202 172.559 41.7661C172.451 41.312 172.42 40.8359 172.464 40.3379L172.493 40.0229C172.542 39.5151 172.666 39.0171 172.867 38.5288C173.067 38.0356 173.333 37.5913 173.665 37.1958C174.002 36.8003 174.397 36.4878 174.851 36.2583C175.31 36.0239 175.818 35.9141 176.375 35.9287C176.927 35.9385 177.386 36.0557 177.752 36.2803C178.118 36.5049 178.404 36.8027 178.609 37.1738C178.819 37.54 178.955 37.9526 179.019 38.4116C179.082 38.8657 179.087 39.332 179.033 39.8105L178.953 40.4185H173.203L173.379 39.3125L177.766 39.3198L177.788 39.2026C177.837 38.8511 177.818 38.5117 177.73 38.1846C177.642 37.8574 177.481 37.5889 177.246 37.3789C177.017 37.1641 176.707 37.0518 176.316 37.042C175.911 37.0273 175.559 37.1104 175.262 37.291C174.964 37.4668 174.715 37.7061 174.514 38.0088C174.314 38.3066 174.156 38.6338 174.038 38.9902C173.926 39.3418 173.848 39.686 173.804 40.0229L173.775 40.3306C173.745 40.6431 173.755 40.958 173.804 41.2754C173.853 41.5928 173.946 41.8833 174.082 42.147C174.224 42.4058 174.419 42.6182 174.668 42.7842C174.917 42.9453 175.225 43.0308 175.591 43.0405C176.035 43.0503 176.433 42.9551 176.785 42.7549C177.141 42.5498 177.466 42.291 177.759 41.9785L178.513 42.623C178.284 42.96 178.011 43.2432 177.693 43.4727C177.376 43.7021 177.029 43.873 176.653 43.9854C176.277 44.0977 175.887 44.1514 175.481 44.1465ZM182.392 37.8477L181.322 44H179.996L181.373 36.0752H182.626L182.392 37.8477ZM181.776 39.7373L181.234 39.7227C181.303 39.249 181.427 38.7852 181.608 38.3311C181.793 37.8721 182.035 37.4595 182.333 37.0933C182.636 36.7271 182.995 36.439 183.41 36.229C183.829 36.0142 184.308 35.9141 184.845 35.9287C185.27 35.9385 185.624 36.0215 185.907 36.1777C186.195 36.3291 186.42 36.5366 186.581 36.8003C186.742 37.064 186.85 37.3691 186.903 37.7158C186.957 38.0576 186.962 38.4214 186.918 38.8071L186.054 44H184.721L185.6 38.7852C185.634 38.4678 185.621 38.1821 185.563 37.9282C185.509 37.6694 185.387 37.4644 185.197 37.313C185.011 37.1567 184.743 37.0737 184.391 37.064C184.02 37.0542 183.685 37.125 183.388 37.2764C183.09 37.4277 182.829 37.6353 182.604 37.8989C182.384 38.1577 182.204 38.4482 182.062 38.7705C181.925 39.0879 181.83 39.4102 181.776 39.7373Z" fill="#333333"/>
</svg>
